<svg width="694" height="158" viewBox="0 0 694 158" fill="none" xmlns="http://www.w3.org/2000/svg">
<g filter="url(#filter0_d)">
<path d="M89.4161 149H55.0705L50.2919 69.96V55.6971H46.7081V69.96L41.9295 149H7.58389L4 45H21.9195L24.3087 124.04V137.411H27.8926V124.04L32.6711 45H64.3289L69.1074 124.04V137.411H72.6913V124.04L75.0805 45H93L89.4161 149ZM104 45H173V63.72H148.231V130.28H173V149H104V130.28H128.769V63.72H104V45ZM264.344 149H244.869V117.8C244.869 115.423 244.254 113.491 243.025 112.006C241.795 110.52 239.754 109.777 236.902 109.777H214.475V149H195V45H234.541C239.852 45 244.525 45.7429 248.557 47.2286C252.59 48.7143 255.959 50.7695 258.664 53.3943C261.369 56.0191 263.434 59.0647 264.861 62.5314C266.287 65.9981 267 69.7124 267 73.6743V77.24C267 81.4991 265.869 85.4857 263.607 89.2C261.344 92.9143 257.852 95.7619 253.131 97.7429V100.417C256.574 100.813 259.303 102.15 261.32 104.429C263.336 106.707 264.344 109.579 264.344 113.046V149ZM214 91H232.562C237.277 91 240.862 89.8995 243.317 87.6984C245.772 85.4973 247 82.3913 247 78.3804V76.6196C247 73.1956 245.772 70.2364 243.317 67.7418C240.862 65.2473 237.277 64 232.562 64H214V91ZM287 45H352.229V63.72H306.48V87.4914H350.458V106.211H306.48V130.28H354V149H287V45ZM377 45H396.36V130.28H443V149H377V45ZM468 45H533.229V63.72H487.48V87.4914H531.458V106.211H487.48V130.28H535V149H468V45ZM630.999 120.181C632.103 123.136 633.849 125.658 635.928 127.819C639.528 131.563 645.125 133.434 652.719 133.434C658.637 133.434 663.026 132.136 665.886 129.541C668.746 126.946 670.176 123.852 670.176 120.258C670.176 118.561 669.88 116.939 669.288 115.392C668.697 113.845 667.661 112.448 666.182 111.2C664.702 109.952 662.68 108.829 660.116 107.831C657.552 106.833 654.297 105.984 650.352 105.286C645.125 104.387 640.341 103.215 636.002 101.767C631.662 100.32 627.89 98.3984 624.684 96.0027C621.479 93.6071 618.989 90.6127 617.214 87.0192C616.286 85.1412 615.6 83.045 615.157 80.7308H609.697V77.1374C609.697 72.945 608.094 69.3018 604.889 66.2074C601.683 63.1131 597.171 61.5659 591.352 61.5659C586.421 61.5659 582.525 62.589 579.665 64.6353C576.805 66.6816 575.375 69.4514 575.375 72.9451C575.375 74.7418 575.72 76.3638 576.41 77.8111C577.1 79.2585 578.309 80.5561 580.035 81.704C581.761 82.8519 584.029 83.875 586.84 84.7734C589.651 85.6717 593.226 86.5201 597.566 87.3187C608.415 89.315 616.699 92.6589 622.419 97.3503C628.14 102.042 631 108.979 631 118.162V119.959C631 120.033 631 120.107 630.999 120.181ZM622.462 141.912C621.975 142.395 621.468 142.863 620.94 143.316C617.685 146.111 613.74 148.257 609.105 149.754C604.469 151.251 599.242 152 593.423 152C586.618 152 580.626 151.027 575.448 149.08C570.271 147.134 565.956 144.439 562.504 140.995C559.052 137.551 556.438 133.509 554.663 128.867C552.888 124.226 552 119.16 552 113.67V109.179H571.528V112.772C571.528 119.06 573.328 124.076 576.928 127.819C580.528 131.563 586.125 133.434 593.719 133.434C599.637 133.434 604.026 132.136 606.886 129.541C609.746 126.946 611.176 123.852 611.176 120.258C611.176 118.561 610.88 116.939 610.288 115.392C609.697 113.845 608.661 112.448 607.182 111.2C605.702 109.952 603.68 108.829 601.116 107.831C598.552 106.833 595.297 105.984 591.352 105.286C586.125 104.387 581.341 103.215 577.002 101.767C572.662 100.32 568.89 98.3984 565.684 96.0027C562.479 93.6071 559.989 90.6127 558.214 87.0192C556.438 83.4258 555.551 79.0339 555.551 73.8434V72.9451C555.551 68.6529 556.414 64.6852 558.14 61.0419C559.865 57.3986 562.282 54.2294 565.389 51.5343C568.495 48.8393 572.243 46.7431 576.632 45.2459C581.021 43.7486 585.928 43 591.352 43C597.467 43 602.891 43.8734 607.625 45.6202C612.36 47.367 616.329 49.7376 619.535 52.7321C620.172 53.3273 620.778 53.9401 621.352 54.5707C622.278 53.4993 623.29 52.4872 624.389 51.5343C627.495 48.8393 631.243 46.7431 635.632 45.2459C640.021 43.7486 644.928 43 650.352 43C656.467 43 661.891 43.8734 666.625 45.6202C671.36 47.367 675.329 49.7376 678.535 52.7321C681.74 55.7267 684.156 59.1703 685.784 63.0632C687.411 66.9561 688.225 71.0485 688.225 75.3407V80.7308H668.697V77.1374C668.697 72.945 667.094 69.3018 663.889 66.2074C660.683 63.1131 656.171 61.5659 650.352 61.5659C645.421 61.5659 641.525 62.589 638.665 64.6353C635.805 66.6816 634.375 69.4514 634.375 72.9451C634.375 74.7418 634.72 76.3638 635.41 77.8111C636.1 79.2585 637.309 80.5561 639.035 81.704C640.761 82.8519 643.029 83.875 645.84 84.7734C648.651 85.6717 652.226 86.5201 656.566 87.3187C667.415 89.315 675.699 92.6589 681.419 97.3503C687.14 102.042 690 108.979 690 118.162V119.959C690 124.85 689.137 129.267 687.411 133.209C685.685 137.152 683.195 140.521 679.94 143.316C676.685 146.111 672.74 148.257 668.105 149.754C663.469 151.251 658.242 152 652.423 152C645.618 152 639.626 151.027 634.448 149.08C629.739 147.31 625.744 144.921 622.462 141.912Z" fill="black"/>
</g>
<path d="M89.4161 149H55.0705L50.2919 69.96V55.6971H46.7081V69.96L41.9295 149H7.58389L4 45H21.9195L24.3087 124.04V137.411H27.8926V124.04L32.6711 45H64.3289L69.1074 124.04V137.411H72.6913V124.04L75.0805 45H93L89.4161 149ZM104 45H173V63.72H148.231V130.28H173V149H104V130.28H128.769V63.72H104V45ZM264.344 149H244.869V117.8C244.869 115.423 244.254 113.491 243.025 112.006C241.795 110.52 239.754 109.777 236.902 109.777H214.475V149H195V45H234.541C239.852 45 244.525 45.7429 248.557 47.2286C252.59 48.7143 255.959 50.7695 258.664 53.3943C261.369 56.0191 263.434 59.0647 264.861 62.5314C266.287 65.9981 267 69.7124 267 73.6743V77.24C267 81.4991 265.869 85.4857 263.607 89.2C261.344 92.9143 257.852 95.7619 253.131 97.7429V100.417C256.574 100.813 259.303 102.15 261.32 104.429C263.336 106.707 264.344 109.579 264.344 113.046V149ZM214 91H232.562C237.277 91 240.862 89.8995 243.317 87.6984C245.772 85.4973 247 82.3913 247 78.3804V76.6196C247 73.1956 245.772 70.2364 243.317 67.7418C240.862 65.2473 237.277 64 232.562 64H214V91ZM287 45H352.229V63.72H306.48V87.4914H350.458V106.211H306.48V130.28H354V149H287V45ZM377 45H396.36V130.28H443V149H377V45ZM468 45H533.229V63.72H487.48V87.4914H531.458V106.211H487.48V130.28H535V149H468V45ZM630.999 120.181C632.103 123.136 633.849 125.658 635.928 127.819C639.528 131.563 645.125 133.434 652.719 133.434C658.637 133.434 663.026 132.136 665.886 129.541C668.746 126.946 670.176 123.852 670.176 120.258C670.176 118.561 669.88 116.939 669.288 115.392C668.697 113.845 667.661 112.448 666.182 111.2C664.702 109.952 662.68 108.829 660.116 107.831C657.552 106.833 654.297 105.984 650.352 105.286C645.125 104.387 640.341 103.215 636.002 101.767C631.662 100.32 627.89 98.3984 624.684 96.0027C621.479 93.6071 618.989 90.6127 617.214 87.0192C616.286 85.1412 615.6 83.045 615.157 80.7308H609.697V77.1374C609.697 72.945 608.094 69.3018 604.889 66.2074C601.683 63.1131 597.171 61.5659 591.352 61.5659C586.421 61.5659 582.525 62.589 579.665 64.6353C576.805 66.6816 575.375 69.4514 575.375 72.9451C575.375 74.7418 575.72 76.3638 576.41 77.8111C577.1 79.2585 578.309 80.5561 580.035 81.704C581.761 82.8519 584.029 83.875 586.84 84.7734C589.651 85.6717 593.226 86.5201 597.566 87.3187C608.415 89.315 616.699 92.6589 622.419 97.3503C628.14 102.042 631 108.979 631 118.162V119.959C631 120.033 631 120.107 630.999 120.181ZM622.462 141.912C621.975 142.395 621.468 142.863 620.94 143.316C617.685 146.111 613.74 148.257 609.105 149.754C604.469 151.251 599.242 152 593.423 152C586.618 152 580.626 151.027 575.448 149.08C570.271 147.134 565.956 144.439 562.504 140.995C559.052 137.551 556.438 133.509 554.663 128.867C552.888 124.226 552 119.16 552 113.67V109.179H571.528V112.772C571.528 119.06 573.328 124.076 576.928 127.819C580.528 131.563 586.125 133.434 593.719 133.434C599.637 133.434 604.026 132.136 606.886 129.541C609.746 126.946 611.176 123.852 611.176 120.258C611.176 118.561 610.88 116.939 610.288 115.392C609.697 113.845 608.661 112.448 607.182 111.2C605.702 109.952 603.68 108.829 601.116 107.831C598.552 106.833 595.297 105.984 591.352 105.286C586.125 104.387 581.341 103.215 577.002 101.767C572.662 100.32 568.89 98.3984 565.684 96.0027C562.479 93.6071 559.989 90.6127 558.214 87.0192C556.438 83.4258 555.551 79.0339 555.551 73.8434V72.9451C555.551 68.6529 556.414 64.6852 558.14 61.0419C559.865 57.3986 562.282 54.2294 565.389 51.5343C568.495 48.8393 572.243 46.7431 576.632 45.2459C581.021 43.7486 585.928 43 591.352 43C597.467 43 602.891 43.8734 607.625 45.6202C612.36 47.367 616.329 49.7376 619.535 52.7321C620.172 53.3273 620.778 53.9401 621.352 54.5707C622.278 53.4993 623.29 52.4872 624.389 51.5343C627.495 48.8393 631.243 46.7431 635.632 45.2459C640.021 43.7486 644.928 43 650.352 43C656.467 43 661.891 43.8734 666.625 45.6202C671.36 47.367 675.329 49.7376 678.535 52.7321C681.74 55.7267 684.156 59.1703 685.784 63.0632C687.411 66.9561 688.225 71.0485 688.225 75.3407V80.7308H668.697V77.1374C668.697 72.945 667.094 69.3018 663.889 66.2074C660.683 63.1131 656.171 61.5659 650.352 61.5659C645.421 61.5659 641.525 62.589 638.665 64.6353C635.805 66.6816 634.375 69.4514 634.375 72.9451C634.375 74.7418 634.72 76.3638 635.41 77.8111C636.1 79.2585 637.309 80.5561 639.035 81.704C640.761 82.8519 643.029 83.875 645.84 84.7734C648.651 85.6717 652.226 86.5201 656.566 87.3187C667.415 89.315 675.699 92.6589 681.419 97.3503C687.14 102.042 690 108.979 690 118.162V119.959C690 124.85 689.137 129.267 687.411 133.209C685.685 137.152 683.195 140.521 679.94 143.316C676.685 146.111 672.74 148.257 668.105 149.754C663.469 151.251 658.242 152 652.423 152C645.618 152 639.626 151.027 634.448 149.08C629.739 147.31 625.744 144.921 622.462 141.912Z" fill="#891120"/>
<g filter="url(#filter1_d)">
<path d="M89.4161 139H55.0705L50.2919 59.96V45.6971H46.7081V59.96L41.9295 139H7.58389L4 35H21.9195L24.3087 114.04V127.411H27.8926V114.04L32.6711 35H64.3289L69.1074 114.04V127.411H72.6913V114.04L75.0805 35H93L89.4161 139ZM104 35H173V53.72H148.231V120.28H173V139H104V120.28H128.769V53.72H104V35ZM264.344 139H244.869V107.8C244.869 105.423 244.254 103.491 243.025 102.006C241.795 100.52 239.754 99.7771 236.902 99.7771H214.475V139H195V35H234.541C239.852 35 244.525 35.7429 248.557 37.2286C252.59 38.7143 255.959 40.7695 258.664 43.3943C261.369 46.0191 263.434 49.0647 264.861 52.5314C266.287 55.9981 267 59.7124 267 63.6743V67.24C267 71.4991 265.869 75.4857 263.607 79.2C261.344 82.9143 257.852 85.7619 253.131 87.7429V90.4171C256.574 90.8133 259.303 92.1505 261.32 94.4286C263.336 96.7067 264.344 99.579 264.344 103.046V139ZM214 81H232.562C237.277 81 240.862 79.8995 243.317 77.6984C245.772 75.4973 247 72.3913 247 68.3804V66.6196C247 63.1956 245.772 60.2364 243.317 57.7418C240.862 55.2473 237.277 54 232.562 54H214V81ZM287 35H352.229V53.72H306.48V77.4914H350.458V96.2114H306.48V120.28H354V139H287V35ZM377 35H396.36V120.28H443V139H377V35ZM468 35H533.229V53.72H487.48V77.4914H531.458V96.2114H487.48V120.28H535V139H468V35ZM630.999 110.181C632.103 113.136 633.849 115.658 635.928 117.819C639.528 121.563 645.125 123.434 652.719 123.434C658.637 123.434 663.026 122.136 665.886 119.541C668.746 116.946 670.176 113.852 670.176 110.258C670.176 108.561 669.88 106.939 669.288 105.392C668.697 103.845 667.661 102.448 666.182 101.2C664.702 99.9521 662.68 98.8292 660.116 97.831C657.552 96.8329 654.297 95.9844 650.352 95.2857C645.125 94.3874 640.341 93.2145 636.002 91.7672C631.662 90.3198 627.89 88.3984 624.684 86.0027C621.479 83.6071 618.989 80.6127 617.214 77.0192C616.286 75.1412 615.6 73.045 615.157 70.7308H609.697V67.1374C609.697 62.945 608.094 59.3018 604.889 56.2074C601.683 53.1131 597.171 51.5659 591.352 51.5659C586.421 51.5659 582.525 52.589 579.665 54.6353C576.805 56.6816 575.375 59.4514 575.375 62.9451C575.375 64.7418 575.72 66.3638 576.41 67.8111C577.1 69.2585 578.309 70.5561 580.035 71.704C581.761 72.8519 584.029 73.875 586.84 74.7734C589.651 75.6717 593.226 76.5201 597.566 77.3187C608.415 79.315 616.699 82.6589 622.419 87.3503C628.14 92.0417 631 98.9789 631 108.162V109.959C631 110.033 631 110.107 630.999 110.181ZM622.462 131.912C621.975 132.395 621.468 132.863 620.94 133.316C617.685 136.111 613.74 138.257 609.105 139.754C604.469 141.251 599.242 142 593.423 142C586.618 142 580.626 141.027 575.448 139.08C570.271 137.134 565.956 134.439 562.504 130.995C559.052 127.551 556.438 123.509 554.663 118.867C552.888 114.226 552 109.16 552 103.67V99.1786H571.528V102.772C571.528 109.06 573.328 114.076 576.928 117.819C580.528 121.563 586.125 123.434 593.719 123.434C599.637 123.434 604.026 122.136 606.886 119.541C609.746 116.946 611.176 113.852 611.176 110.258C611.176 108.561 610.88 106.939 610.288 105.392C609.697 103.845 608.661 102.448 607.182 101.2C605.702 99.9521 603.68 98.8292 601.116 97.831C598.552 96.8329 595.297 95.9844 591.352 95.2857C586.125 94.3874 581.341 93.2145 577.002 91.7672C572.662 90.3198 568.89 88.3984 565.684 86.0027C562.479 83.6071 559.989 80.6127 558.214 77.0192C556.438 73.4258 555.551 69.0339 555.551 63.8434V62.9451C555.551 58.6529 556.414 54.6852 558.14 51.0419C559.865 47.3986 562.282 44.2294 565.389 41.5343C568.495 38.8393 572.243 36.7431 576.632 35.2459C581.021 33.7486 585.928 33 591.352 33C597.467 33 602.891 33.8734 607.625 35.6202C612.36 37.367 616.329 39.7376 619.535 42.7321C620.172 43.3273 620.778 43.9401 621.352 44.5707C622.278 43.4993 623.29 42.4872 624.389 41.5343C627.495 38.8393 631.243 36.7431 635.632 35.2459C640.021 33.7486 644.928 33 650.352 33C656.467 33 661.891 33.8734 666.625 35.6202C671.36 37.367 675.329 39.7376 678.535 42.7321C681.74 45.7267 684.156 49.1703 685.784 53.0632C687.411 56.9561 688.225 61.0485 688.225 65.3407V70.7308H668.697V67.1374C668.697 62.945 667.094 59.3018 663.889 56.2074C660.683 53.1131 656.171 51.5659 650.352 51.5659C645.421 51.5659 641.525 52.589 638.665 54.6353C635.805 56.6816 634.375 59.4514 634.375 62.9451C634.375 64.7418 634.72 66.3638 635.41 67.8111C636.1 69.2585 637.309 70.5561 639.035 71.704C640.761 72.8519 643.029 73.875 645.84 74.7734C648.651 75.6717 652.226 76.5201 656.566 77.3187C667.415 79.315 675.699 82.6589 681.419 87.3503C687.14 92.0417 690 98.9789 690 108.162V109.959C690 114.85 689.137 119.267 687.411 123.209C685.685 127.152 683.195 130.521 679.94 133.316C676.685 136.111 672.74 138.257 668.105 139.754C663.469 141.251 658.242 142 652.423 142C645.618 142 639.626 141.027 634.448 139.08C629.739 137.31 625.744 134.921 622.462 131.912Z" fill="black"/>
</g>
<path d="M89.4161 139H55.0705L50.2919 59.96V45.6971H46.7081V59.96L41.9295 139H7.58389L4 35H21.9195L24.3087 114.04V127.411H27.8926V114.04L32.6711 35H64.3289L69.1074 114.04V127.411H72.6913V114.04L75.0805 35H93L89.4161 139ZM104 35H173V53.72H148.231V120.28H173V139H104V120.28H128.769V53.72H104V35ZM264.344 139H244.869V107.8C244.869 105.423 244.254 103.491 243.025 102.006C241.795 100.52 239.754 99.7771 236.902 99.7771H214.475V139H195V35H234.541C239.852 35 244.525 35.7429 248.557 37.2286C252.59 38.7143 255.959 40.7695 258.664 43.3943C261.369 46.0191 263.434 49.0647 264.861 52.5314C266.287 55.9981 267 59.7124 267 63.6743V67.24C267 71.4991 265.869 75.4857 263.607 79.2C261.344 82.9143 257.852 85.7619 253.131 87.7429V90.4171C256.574 90.8133 259.303 92.1505 261.32 94.4286C263.336 96.7067 264.344 99.579 264.344 103.046V139ZM214 81H232.562C237.277 81 240.862 79.8995 243.317 77.6984C245.772 75.4973 247 72.3913 247 68.3804V66.6196C247 63.1956 245.772 60.2364 243.317 57.7418C240.862 55.2473 237.277 54 232.562 54H214V81ZM287 35H352.229V53.72H306.48V77.4914H350.458V96.2114H306.48V120.28H354V139H287V35ZM377 35H396.36V120.28H443V139H377V35ZM468 35H533.229V53.72H487.48V77.4914H531.458V96.2114H487.48V120.28H535V139H468V35ZM630.999 110.181C632.103 113.136 633.849 115.658 635.928 117.819C639.528 121.563 645.125 123.434 652.719 123.434C658.637 123.434 663.026 122.136 665.886 119.541C668.746 116.946 670.176 113.852 670.176 110.258C670.176 108.561 669.88 106.939 669.288 105.392C668.697 103.845 667.661 102.448 666.182 101.2C664.702 99.9521 662.68 98.8292 660.116 97.831C657.552 96.8329 654.297 95.9844 650.352 95.2857C645.125 94.3874 640.341 93.2145 636.002 91.7672C631.662 90.3198 627.89 88.3984 624.684 86.0027C621.479 83.6071 618.989 80.6127 617.214 77.0192C616.286 75.1412 615.6 73.045 615.157 70.7308H609.697V67.1374C609.697 62.945 608.094 59.3018 604.889 56.2074C601.683 53.1131 597.171 51.5659 591.352 51.5659C586.421 51.5659 582.525 52.589 579.665 54.6353C576.805 56.6816 575.375 59.4514 575.375 62.9451C575.375 64.7418 575.72 66.3638 576.41 67.8111C577.1 69.2585 578.309 70.5561 580.035 71.704C581.761 72.8519 584.029 73.875 586.84 74.7734C589.651 75.6717 593.226 76.5201 597.566 77.3187C608.415 79.315 616.699 82.6589 622.419 87.3503C628.14 92.0417 631 98.9789 631 108.162V109.959C631 110.033 631 110.107 630.999 110.181ZM622.462 131.912C621.975 132.395 621.468 132.863 620.94 133.316C617.685 136.111 613.74 138.257 609.105 139.754C604.469 141.251 599.242 142 593.423 142C586.618 142 580.626 141.027 575.448 139.08C570.271 137.134 565.956 134.439 562.504 130.995C559.052 127.551 556.438 123.509 554.663 118.867C552.888 114.226 552 109.16 552 103.67V99.1786H571.528V102.772C571.528 109.06 573.328 114.076 576.928 117.819C580.528 121.563 586.125 123.434 593.719 123.434C599.637 123.434 604.026 122.136 606.886 119.541C609.746 116.946 611.176 113.852 611.176 110.258C611.176 108.561 610.88 106.939 610.288 105.392C609.697 103.845 608.661 102.448 607.182 101.2C605.702 99.9521 603.68 98.8292 601.116 97.831C598.552 96.8329 595.297 95.9844 591.352 95.2857C586.125 94.3874 581.341 93.2145 577.002 91.7672C572.662 90.3198 568.89 88.3984 565.684 86.0027C562.479 83.6071 559.989 80.6127 558.214 77.0192C556.438 73.4258 555.551 69.0339 555.551 63.8434V62.9451C555.551 58.6529 556.414 54.6852 558.14 51.0419C559.865 47.3986 562.282 44.2294 565.389 41.5343C568.495 38.8393 572.243 36.7431 576.632 35.2459C581.021 33.7486 585.928 33 591.352 33C597.467 33 602.891 33.8734 607.625 35.6202C612.36 37.367 616.329 39.7376 619.535 42.7321C620.172 43.3273 620.778 43.9401 621.352 44.5707C622.278 43.4993 623.29 42.4872 624.389 41.5343C627.495 38.8393 631.243 36.7431 635.632 35.2459C640.021 33.7486 644.928 33 650.352 33C656.467 33 661.891 33.8734 666.625 35.6202C671.36 37.367 675.329 39.7376 678.535 42.7321C681.74 45.7267 684.156 49.1703 685.784 53.0632C687.411 56.9561 688.225 61.0485 688.225 65.3407V70.7308H668.697V67.1374C668.697 62.945 667.094 59.3018 663.889 56.2074C660.683 53.1131 656.171 51.5659 650.352 51.5659C645.421 51.5659 641.525 52.589 638.665 54.6353C635.805 56.6816 634.375 59.4514 634.375 62.9451C634.375 64.7418 634.72 66.3638 635.41 67.8111C636.1 69.2585 637.309 70.5561 639.035 71.704C640.761 72.8519 643.029 73.875 645.84 74.7734C648.651 75.6717 652.226 76.5201 656.566 77.3187C667.415 79.315 675.699 82.6589 681.419 87.3503C687.14 92.0417 690 98.9789 690 108.162V109.959C690 114.85 689.137 119.267 687.411 123.209C685.685 127.152 683.195 130.521 679.94 133.316C676.685 136.111 672.74 138.257 668.105 139.754C663.469 141.251 658.242 142 652.423 142C645.618 142 639.626 141.027 634.448 139.08C629.739 137.31 625.744 134.921 622.462 131.912Z" fill="#EAAA00"/>
<g filter="url(#filter2_d)">
<path d="M89.4161 129H55.0705L50.2919 49.96V35.6971H46.7081V49.96L41.9295 129H7.58389L4 25H21.9195L24.3087 104.04V117.411H27.8926V104.04L32.6711 25H64.3289L69.1074 104.04V117.411H72.6913V104.04L75.0805 25H93L89.4161 129ZM104 25H173V43.72H148.231V110.28H173V129H104V110.28H128.769V43.72H104V25ZM264.344 129H244.869V97.8C244.869 95.4229 244.254 93.4914 243.025 92.0057C241.795 90.52 239.754 89.7771 236.902 89.7771H214.475V129H195V25H234.541C239.852 25 244.525 25.7428 248.557 27.2286C252.59 28.7143 255.959 30.7695 258.664 33.3943C261.369 36.0191 263.434 39.0647 264.861 42.5314C266.287 45.9981 267 49.7124 267 53.6743V57.24C267 61.4991 265.869 65.4857 263.607 69.2C261.344 72.9143 257.852 75.7619 253.131 77.7429V80.4171C256.574 80.8133 259.303 82.1505 261.32 84.4286C263.336 86.7067 264.344 89.579 264.344 93.0457V129ZM214 71H232.562C237.277 71 240.862 69.8995 243.317 67.6984C245.772 65.4973 247 62.3913 247 58.3804V56.6196C247 53.1956 245.772 50.2364 243.317 47.7418C240.862 45.2473 237.277 44 232.562 44H214V71ZM287 25H352.229V43.72H306.48V67.4914H350.458V86.2114H306.48V110.28H354V129H287V25ZM377 25H396.36V110.28H443V129H377V25ZM468 25H533.229V43.72H487.48V67.4914H531.458V86.2114H487.48V110.28H535V129H468V25ZM630.999 102.181C632.103 105.136 633.849 107.658 635.928 109.819C639.528 113.563 645.125 115.434 652.719 115.434C658.637 115.434 663.026 114.136 665.886 111.541C668.746 108.946 670.176 105.852 670.176 102.258C670.176 100.561 669.88 98.9393 669.288 97.3922C668.697 95.845 667.661 94.4476 666.182 93.1999C664.702 91.9521 662.68 90.8292 660.116 89.831C657.552 88.8329 654.297 87.9844 650.352 87.2857C645.125 86.3874 640.341 85.2145 636.002 83.7672C631.662 82.3198 627.89 80.3984 624.684 78.0027C621.479 75.6071 618.989 72.6127 617.214 69.0192C616.286 67.1412 615.6 65.045 615.157 62.7308H609.697V59.1374C609.697 54.945 608.094 51.3018 604.889 48.2074C601.683 45.1131 597.171 43.5659 591.352 43.5659C586.421 43.5659 582.525 44.589 579.665 46.6353C576.805 48.6816 575.375 51.4514 575.375 54.9451C575.375 56.7418 575.72 58.3638 576.41 59.8111C577.1 61.2585 578.309 62.5561 580.035 63.704C581.761 64.8519 584.029 65.875 586.84 66.7734C589.651 67.6717 593.226 68.5201 597.566 69.3187C608.415 71.315 616.699 74.6589 622.419 79.3503C628.14 84.0417 631 90.9789 631 100.162V101.959C631 102.033 631 102.107 630.999 102.181ZM622.462 123.912C621.975 124.395 621.468 124.863 620.94 125.316C617.685 128.111 613.74 130.257 609.105 131.754C604.469 133.251 599.242 134 593.423 134C586.618 134 580.626 133.027 575.448 131.08C570.271 129.134 565.956 126.439 562.504 122.995C559.052 119.551 556.438 115.509 554.663 110.867C552.888 106.226 552 101.16 552 95.6703V91.1786H571.528V94.772C571.528 101.06 573.328 106.076 576.928 109.819C580.528 113.563 586.125 115.434 593.719 115.434C599.637 115.434 604.026 114.136 606.886 111.541C609.746 108.946 611.176 105.852 611.176 102.258C611.176 100.561 610.88 98.9393 610.288 97.3922C609.697 95.845 608.661 94.4476 607.182 93.1999C605.702 91.9521 603.68 90.8292 601.116 89.831C598.552 88.8329 595.297 87.9844 591.352 87.2857C586.125 86.3874 581.341 85.2145 577.002 83.7672C572.662 82.3198 568.89 80.3984 565.684 78.0027C562.479 75.6071 559.989 72.6127 558.214 69.0192C556.438 65.4258 555.551 61.0339 555.551 55.8434V54.9451C555.551 50.6529 556.414 46.6852 558.14 43.0419C559.865 39.3986 562.282 36.2294 565.389 33.5343C568.495 30.8393 572.243 28.7431 576.632 27.2459C581.021 25.7486 585.928 25 591.352 25C597.467 25 602.891 25.8734 607.625 27.6202C612.36 29.367 616.329 31.7376 619.535 34.7321C620.172 35.3273 620.778 35.9401 621.352 36.5707C622.278 35.4993 623.29 34.4872 624.389 33.5343C627.495 30.8393 631.243 28.7431 635.632 27.2459C640.021 25.7486 644.928 25 650.352 25C656.467 25 661.891 25.8734 666.625 27.6202C671.36 29.367 675.329 31.7376 678.535 34.7321C681.74 37.7267 684.156 41.1703 685.784 45.0632C687.411 48.9561 688.225 53.0485 688.225 57.3407V62.7308H668.697V59.1374C668.697 54.945 667.094 51.3018 663.889 48.2074C660.683 45.1131 656.171 43.5659 650.352 43.5659C645.421 43.5659 641.525 44.589 638.665 46.6353C635.805 48.6816 634.375 51.4514 634.375 54.9451C634.375 56.7418 634.72 58.3638 635.41 59.8111C636.1 61.2585 637.309 62.5561 639.035 63.704C640.761 64.8519 643.029 65.875 645.84 66.7734C648.651 67.6717 652.226 68.5201 656.566 69.3187C667.415 71.315 675.699 74.6589 681.419 79.3503C687.14 84.0417 690 90.9789 690 100.162V101.959C690 106.85 689.137 111.267 687.411 115.209C685.685 119.152 683.195 122.521 679.94 125.316C676.685 128.111 672.74 130.257 668.105 131.754C663.469 133.251 658.242 134 652.423 134C645.618 134 639.626 133.027 634.448 131.08C629.739 129.31 625.744 126.921 622.462 123.912Z" fill="black"/>
</g>
<path d="M89.4161 129H55.0705L50.2919 49.96V35.6971H46.7081V49.96L41.9295 129H7.58389L4 25H21.9195L24.3087 104.04V117.411H27.8926V104.04L32.6711 25H64.3289L69.1074 104.04V117.411H72.6913V104.04L75.0805 25H93L89.4161 129ZM104 25H173V43.72H148.231V110.28H173V129H104V110.28H128.769V43.72H104V25ZM264.344 129H244.869V97.8C244.869 95.4229 244.254 93.4914 243.025 92.0057C241.795 90.52 239.754 89.7771 236.902 89.7771H214.475V129H195V25H234.541C239.852 25 244.525 25.7428 248.557 27.2286C252.59 28.7143 255.959 30.7695 258.664 33.3943C261.369 36.0191 263.434 39.0647 264.861 42.5314C266.287 45.9981 267 49.7124 267 53.6743V57.24C267 61.4991 265.869 65.4857 263.607 69.2C261.344 72.9143 257.852 75.7619 253.131 77.7429V80.4171C256.574 80.8133 259.303 82.1505 261.32 84.4286C263.336 86.7067 264.344 89.579 264.344 93.0457V129ZM214 71H232.562C237.277 71 240.862 69.8995 243.317 67.6984C245.772 65.4973 247 62.3913 247 58.3804V56.6196C247 53.1956 245.772 50.2364 243.317 47.7418C240.862 45.2473 237.277 44 232.562 44H214V71ZM287 25H352.229V43.72H306.48V67.4914H350.458V86.2114H306.48V110.28H354V129H287V25ZM377 25H396.36V110.28H443V129H377V25ZM468 25H533.229V43.72H487.48V67.4914H531.458V86.2114H487.48V110.28H535V129H468V25ZM630.999 102.181C632.103 105.136 633.849 107.658 635.928 109.819C639.528 113.563 645.125 115.434 652.719 115.434C658.637 115.434 663.026 114.136 665.886 111.541C668.746 108.946 670.176 105.852 670.176 102.258C670.176 100.561 669.88 98.9393 669.288 97.3922C668.697 95.845 667.661 94.4476 666.182 93.1999C664.702 91.9521 662.68 90.8292 660.116 89.831C657.552 88.8329 654.297 87.9844 650.352 87.2857C645.125 86.3874 640.341 85.2145 636.002 83.7672C631.662 82.3198 627.89 80.3984 624.684 78.0027C621.479 75.6071 618.989 72.6127 617.214 69.0192C616.286 67.1412 615.6 65.045 615.157 62.7308H609.697V59.1374C609.697 54.945 608.094 51.3018 604.889 48.2074C601.683 45.1131 597.171 43.5659 591.352 43.5659C586.421 43.5659 582.525 44.589 579.665 46.6353C576.805 48.6816 575.375 51.4514 575.375 54.9451C575.375 56.7418 575.72 58.3638 576.41 59.8111C577.1 61.2585 578.309 62.5561 580.035 63.704C581.761 64.8519 584.029 65.875 586.84 66.7734C589.651 67.6717 593.226 68.5201 597.566 69.3187C608.415 71.315 616.699 74.6589 622.419 79.3503C628.14 84.0417 631 90.9789 631 100.162V101.959C631 102.033 631 102.107 630.999 102.181ZM622.462 123.912C621.975 124.395 621.468 124.863 620.94 125.316C617.685 128.111 613.74 130.257 609.105 131.754C604.469 133.251 599.242 134 593.423 134C586.618 134 580.626 133.027 575.448 131.08C570.271 129.134 565.956 126.439 562.504 122.995C559.052 119.551 556.438 115.509 554.663 110.867C552.888 106.226 552 101.16 552 95.6703V91.1786H571.528V94.772C571.528 101.06 573.328 106.076 576.928 109.819C580.528 113.563 586.125 115.434 593.719 115.434C599.637 115.434 604.026 114.136 606.886 111.541C609.746 108.946 611.176 105.852 611.176 102.258C611.176 100.561 610.88 98.9393 610.288 97.3922C609.697 95.845 608.661 94.4476 607.182 93.1999C605.702 91.9521 603.68 90.8292 601.116 89.831C598.552 88.8329 595.297 87.9844 591.352 87.2857C586.125 86.3874 581.341 85.2145 577.002 83.7672C572.662 82.3198 568.89 80.3984 565.684 78.0027C562.479 75.6071 559.989 72.6127 558.214 69.0192C556.438 65.4258 555.551 61.0339 555.551 55.8434V54.9451C555.551 50.6529 556.414 46.6852 558.14 43.0419C559.865 39.3986 562.282 36.2294 565.389 33.5343C568.495 30.8393 572.243 28.7431 576.632 27.2459C581.021 25.7486 585.928 25 591.352 25C597.467 25 602.891 25.8734 607.625 27.6202C612.36 29.367 616.329 31.7376 619.535 34.7321C620.172 35.3273 620.778 35.9401 621.352 36.5707C622.278 35.4993 623.29 34.4872 624.389 33.5343C627.495 30.8393 631.243 28.7431 635.632 27.2459C640.021 25.7486 644.928 25 650.352 25C656.467 25 661.891 25.8734 666.625 27.6202C671.36 29.367 675.329 31.7376 678.535 34.7321C681.74 37.7267 684.156 41.1703 685.784 45.0632C687.411 48.9561 688.225 53.0485 688.225 57.3407V62.7308H668.697V59.1374C668.697 54.945 667.094 51.3018 663.889 48.2074C660.683 45.1131 656.171 43.5659 650.352 43.5659C645.421 43.5659 641.525 44.589 638.665 46.6353C635.805 48.6816 634.375 51.4514 634.375 54.9451C634.375 56.7418 634.72 58.3638 635.41 59.8111C636.1 61.2585 637.309 62.5561 639.035 63.704C640.761 64.8519 643.029 65.875 645.84 66.7734C648.651 67.6717 652.226 68.5201 656.566 69.3187C667.415 71.315 675.699 74.6589 681.419 79.3503C687.14 84.0417 690 90.9789 690 100.162V101.959C690 106.85 689.137 111.267 687.411 115.209C685.685 119.152 683.195 122.521 679.94 125.316C676.685 128.111 672.74 130.257 668.105 131.754C663.469 133.251 658.242 134 652.423 134C645.618 134 639.626 133.027 634.448 131.08C629.739 129.31 625.744 126.921 622.462 123.912Z" fill="#5C9618"/>
<g filter="url(#filter3_d)">
<path d="M89.4161 118H55.0705L50.2919 38.96V24.6971H46.7081V38.96L41.9295 118H7.58389L4 14H21.9195L24.3087 93.04V106.411H27.8926V93.04L32.6711 14H64.3289L69.1074 93.04V106.411H72.6913V93.04L75.0805 14H93L89.4161 118ZM104 14H173V32.72H148.231V99.28H173V118H104V99.28H128.769V32.72H104V14ZM264.344 118H244.869V86.8C244.869 84.4229 244.254 82.4914 243.025 81.0057C241.795 79.52 239.754 78.7771 236.902 78.7771H214.475V118H195V14H234.541C239.852 14 244.525 14.7428 248.557 16.2286C252.59 17.7143 255.959 19.7695 258.664 22.3943C261.369 25.0191 263.434 28.0647 264.861 31.5314C266.287 34.9981 267 38.7124 267 42.6743V46.24C267 50.4991 265.869 54.4857 263.607 58.2C261.344 61.9143 257.852 64.7619 253.131 66.7429V69.4171C256.574 69.8133 259.303 71.1505 261.32 73.4286C263.336 75.7067 264.344 78.579 264.344 82.0457V118ZM214 60H232.562C237.277 60 240.862 58.8995 243.317 56.6984C245.772 54.4973 247 51.3913 247 47.3804V45.6196C247 42.1956 245.772 39.2364 243.317 36.7418C240.862 34.2473 237.277 33 232.562 33H214V60ZM287 14H352.229V32.72H306.48V56.4914H350.458V75.2114H306.48V99.28H354V118H287V14ZM377 14H396.36V99.28H443V118H377V14ZM468 14H533.229V32.72H487.48V56.4914H531.458V75.2114H487.48V99.28H535V118H468V14ZM630.999 91.1808C632.103 94.1365 633.849 96.6576 635.928 98.8194C639.528 102.563 645.125 104.434 652.719 104.434C658.637 104.434 663.026 103.136 665.886 100.541C668.746 97.946 670.176 94.8517 670.176 91.2582C670.176 89.5613 669.88 87.9393 669.288 86.3922C668.697 84.845 667.661 83.4476 666.182 82.1999C664.702 80.9521 662.68 79.8292 660.116 78.831C657.552 77.8329 654.297 76.9844 650.352 76.2857C645.125 75.3874 640.341 74.2145 636.002 72.7672C631.662 71.3198 627.89 69.3984 624.684 67.0027C621.479 64.6071 618.989 61.6127 617.214 58.0192C616.286 56.1412 615.6 54.045 615.157 51.7308H609.697V48.1374C609.697 43.945 608.094 40.3018 604.889 37.2074C601.683 34.1131 597.171 32.5659 591.352 32.5659C586.421 32.5659 582.525 33.589 579.665 35.6353C576.805 37.6816 575.375 40.4514 575.375 43.9451C575.375 45.7418 575.72 47.3638 576.41 48.8111C577.1 50.2585 578.309 51.5561 580.035 52.704C581.761 53.8519 584.029 54.875 586.84 55.7733C589.651 56.6717 593.226 57.5201 597.566 58.3187C608.415 60.315 616.699 63.6589 622.419 68.3503C628.14 73.0417 631 79.9789 631 89.1621V90.9588C631 91.0329 631 91.1069 630.999 91.1808ZM622.462 112.912C621.975 113.395 621.468 113.863 620.94 114.316C617.685 117.111 613.74 119.257 609.105 120.754C604.469 122.251 599.242 123 593.423 123C586.618 123 580.626 122.027 575.448 120.08C570.271 118.134 565.956 115.439 562.504 111.995C559.052 108.551 556.438 104.509 554.663 99.8674C552.888 95.2259 552 90.1603 552 84.6703V80.1786H571.528V83.772C571.528 90.0605 573.328 95.0762 576.928 98.8194C580.528 102.563 586.125 104.434 593.719 104.434C599.637 104.434 604.026 103.136 606.886 100.541C609.746 97.946 611.176 94.8517 611.176 91.2582C611.176 89.5613 610.88 87.9393 610.288 86.3922C609.697 84.845 608.661 83.4476 607.182 82.1999C605.702 80.9521 603.68 79.8292 601.116 78.831C598.552 77.8329 595.297 76.9844 591.352 76.2857C586.125 75.3874 581.341 74.2145 577.002 72.7672C572.662 71.3198 568.89 69.3984 565.684 67.0027C562.479 64.6071 559.989 61.6127 558.214 58.0192C556.438 54.4258 555.551 50.0339 555.551 44.8434V43.9451C555.551 39.6529 556.414 35.6852 558.14 32.0419C559.865 28.3986 562.282 25.2294 565.389 22.5343C568.495 19.8393 572.243 17.7431 576.632 16.2459C581.021 14.7486 585.928 14 591.352 14C597.467 14 602.891 14.8734 607.625 16.6202C612.36 18.367 616.329 20.7376 619.535 23.7321C620.172 24.3273 620.778 24.9401 621.352 25.5707C622.278 24.4993 623.29 23.4872 624.389 22.5343C627.495 19.8393 631.243 17.7431 635.632 16.2459C640.021 14.7486 644.928 14 650.352 14C656.467 14 661.891 14.8734 666.625 16.6202C671.36 18.367 675.329 20.7376 678.535 23.7321C681.74 26.7267 684.156 30.1703 685.784 34.0632C687.411 37.9561 688.225 42.0485 688.225 46.3407V51.7308H668.697V48.1374C668.697 43.945 667.094 40.3018 663.889 37.2074C660.683 34.1131 656.171 32.5659 650.352 32.5659C645.421 32.5659 641.525 33.589 638.665 35.6353C635.805 37.6816 634.375 40.4514 634.375 43.9451C634.375 45.7418 634.72 47.3638 635.41 48.8111C636.1 50.2585 637.309 51.5561 639.035 52.704C640.761 53.8519 643.029 54.875 645.84 55.7733C648.651 56.6717 652.226 57.5201 656.566 58.3187C667.415 60.315 675.699 63.6589 681.419 68.3503C687.14 73.0417 690 79.9789 690 89.1621V90.9588C690 95.8498 689.137 100.267 687.411 104.209C685.685 108.152 683.195 111.521 679.94 114.316C676.685 117.111 672.74 119.257 668.105 120.754C663.469 122.251 658.242 123 652.423 123C645.618 123 639.626 122.027 634.448 120.08C629.739 118.31 625.744 115.921 622.462 112.912Z" fill="black"/>
</g>
<path d="M89.4161 118H55.0705L50.2919 38.96V24.6971H46.7081V38.96L41.9295 118H7.58389L4 14H21.9195L24.3087 93.04V106.411H27.8926V93.04L32.6711 14H64.3289L69.1074 93.04V106.411H72.6913V93.04L75.0805 14H93L89.4161 118ZM104 14H173V32.72H148.231V99.28H173V118H104V99.28H128.769V32.72H104V14ZM264.344 118H244.869V86.8C244.869 84.4229 244.254 82.4914 243.025 81.0057C241.795 79.52 239.754 78.7771 236.902 78.7771H214.475V118H195V14H234.541C239.852 14 244.525 14.7428 248.557 16.2286C252.59 17.7143 255.959 19.7695 258.664 22.3943C261.369 25.0191 263.434 28.0647 264.861 31.5314C266.287 34.9981 267 38.7124 267 42.6743V46.24C267 50.4991 265.869 54.4857 263.607 58.2C261.344 61.9143 257.852 64.7619 253.131 66.7429V69.4171C256.574 69.8133 259.303 71.1505 261.32 73.4286C263.336 75.7067 264.344 78.579 264.344 82.0457V118ZM214 60H232.562C237.277 60 240.862 58.8995 243.317 56.6984C245.772 54.4973 247 51.3913 247 47.3804V45.6196C247 42.1956 245.772 39.2364 243.317 36.7418C240.862 34.2473 237.277 33 232.562 33H214V60ZM287 14H352.229V32.72H306.48V56.4914H350.458V75.2114H306.48V99.28H354V118H287V14ZM377 14H396.36V99.28H443V118H377V14ZM468 14H533.229V32.72H487.48V56.4914H531.458V75.2114H487.48V99.28H535V118H468V14ZM630.999 91.1808C632.103 94.1365 633.849 96.6576 635.928 98.8194C639.528 102.563 645.125 104.434 652.719 104.434C658.637 104.434 663.026 103.136 665.886 100.541C668.746 97.946 670.176 94.8517 670.176 91.2582C670.176 89.5613 669.88 87.9393 669.288 86.3922C668.697 84.845 667.661 83.4476 666.182 82.1999C664.702 80.9521 662.68 79.8292 660.116 78.831C657.552 77.8329 654.297 76.9844 650.352 76.2857C645.125 75.3874 640.341 74.2145 636.002 72.7672C631.662 71.3198 627.89 69.3984 624.684 67.0027C621.479 64.6071 618.989 61.6127 617.214 58.0192C616.286 56.1412 615.6 54.045 615.157 51.7308H609.697V48.1374C609.697 43.945 608.094 40.3018 604.889 37.2074C601.683 34.1131 597.171 32.5659 591.352 32.5659C586.421 32.5659 582.525 33.589 579.665 35.6353C576.805 37.6816 575.375 40.4514 575.375 43.9451C575.375 45.7418 575.72 47.3638 576.41 48.8111C577.1 50.2585 578.309 51.5561 580.035 52.704C581.761 53.8519 584.029 54.875 586.84 55.7733C589.651 56.6717 593.226 57.5201 597.566 58.3187C608.415 60.315 616.699 63.6589 622.419 68.3503C628.14 73.0417 631 79.9789 631 89.1621V90.9588C631 91.0329 631 91.1069 630.999 91.1808ZM622.462 112.912C621.975 113.395 621.468 113.863 620.94 114.316C617.685 117.111 613.74 119.257 609.105 120.754C604.469 122.251 599.242 123 593.423 123C586.618 123 580.626 122.027 575.448 120.08C570.271 118.134 565.956 115.439 562.504 111.995C559.052 108.551 556.438 104.509 554.663 99.8674C552.888 95.2259 552 90.1603 552 84.6703V80.1786H571.528V83.772C571.528 90.0605 573.328 95.0762 576.928 98.8194C580.528 102.563 586.125 104.434 593.719 104.434C599.637 104.434 604.026 103.136 606.886 100.541C609.746 97.946 611.176 94.8517 611.176 91.2582C611.176 89.5613 610.88 87.9393 610.288 86.3922C609.697 84.845 608.661 83.4476 607.182 82.1999C605.702 80.9521 603.68 79.8292 601.116 78.831C598.552 77.8329 595.297 76.9844 591.352 76.2857C586.125 75.3874 581.341 74.2145 577.002 72.7672C572.662 71.3198 568.89 69.3984 565.684 67.0027C562.479 64.6071 559.989 61.6127 558.214 58.0192C556.438 54.4258 555.551 50.0339 555.551 44.8434V43.9451C555.551 39.6529 556.414 35.6852 558.14 32.0419C559.865 28.3986 562.282 25.2294 565.389 22.5343C568.495 19.8393 572.243 17.7431 576.632 16.2459C581.021 14.7486 585.928 14 591.352 14C597.467 14 602.891 14.8734 607.625 16.6202C612.36 18.367 616.329 20.7376 619.535 23.7321C620.172 24.3273 620.778 24.9401 621.352 25.5707C622.278 24.4993 623.29 23.4872 624.389 22.5343C627.495 19.8393 631.243 17.7431 635.632 16.2459C640.021 14.7486 644.928 14 650.352 14C656.467 14 661.891 14.8734 666.625 16.6202C671.36 18.367 675.329 20.7376 678.535 23.7321C681.74 26.7267 684.156 30.1703 685.784 34.0632C687.411 37.9561 688.225 42.0485 688.225 46.3407V51.7308H668.697V48.1374C668.697 43.945 667.094 40.3018 663.889 37.2074C660.683 34.1131 656.171 32.5659 650.352 32.5659C645.421 32.5659 641.525 33.589 638.665 35.6353C635.805 37.6816 634.375 40.4514 634.375 43.9451C634.375 45.7418 634.72 47.3638 635.41 48.8111C636.1 50.2585 637.309 51.5561 639.035 52.704C640.761 53.8519 643.029 54.875 645.84 55.7733C648.651 56.6717 652.226 57.5201 656.566 58.3187C667.415 60.315 675.699 63.6589 681.419 68.3503C687.14 73.0417 690 79.9789 690 89.1621V90.9588C690 95.8498 689.137 100.267 687.411 104.209C685.685 108.152 683.195 111.521 679.94 114.316C676.685 117.111 672.74 119.257 668.105 120.754C663.469 122.251 658.242 123 652.423 123C645.618 123 639.626 122.027 634.448 120.08C629.739 118.31 625.744 115.921 622.462 112.912Z" fill="#3080DD"/>
<g filter="url(#filter4_d)">
<path d="M89.4161 108H55.0705L50.2919 28.96V14.6971H46.7081V28.96L41.9295 108H7.58389L4 4H21.9195L24.3087 83.04V96.4114H27.8926V83.04L32.6711 4H64.3289L69.1074 83.04V96.4114H72.6913V83.04L75.0805 4H93L89.4161 108ZM104 4H173V22.72H148.231V89.28H173V108H104V89.28H128.769V22.72H104V4ZM264.344 108H244.869V76.8C244.869 74.4229 244.254 72.4914 243.025 71.0057C241.795 69.52 239.754 68.7771 236.902 68.7771H214.475V108H195V4H234.541C239.852 4 244.525 4.74285 248.557 6.22857C252.59 7.71429 255.959 9.76951 258.664 12.3943C261.369 15.0191 263.434 18.0647 264.861 21.5314C266.287 24.9981 267 28.7124 267 32.6743V36.24C267 40.4991 265.869 44.4857 263.607 48.2C261.344 51.9143 257.852 54.7619 253.131 56.7429V59.4171C256.574 59.8133 259.303 61.1505 261.32 63.4286C263.336 65.7067 264.344 68.579 264.344 72.0457V108ZM214 50H232.562C237.277 50 240.862 48.8995 243.317 46.6984C245.772 44.4973 247 41.3913 247 37.3804V35.6196C247 32.1956 245.772 29.2364 243.317 26.7418C240.862 24.2473 237.277 23 232.562 23H214V50ZM287 4H352.229V22.72H306.48V46.4914H350.458V65.2114H306.48V89.28H354V108H287V4ZM377 4H396.36V89.28H443V108H377V4ZM468 4H533.229V22.72H487.48V46.4914H531.458V65.2114H487.48V89.28H535V108H468V4ZM630.999 79.1808C632.103 82.1365 633.849 84.6576 635.928 86.8194C639.528 90.5625 645.125 92.4341 652.719 92.4341C658.637 92.4341 663.026 91.1365 665.886 88.5412C668.746 85.946 670.176 82.8517 670.176 79.2582C670.176 77.5613 669.88 75.9393 669.288 74.3922C668.697 72.845 667.661 71.4476 666.182 70.1999C664.702 68.9521 662.68 67.8292 660.116 66.831C657.552 65.8329 654.297 64.9844 650.352 64.2857C645.125 63.3874 640.341 62.2145 636.002 60.7672C631.662 59.3198 627.89 57.3984 624.684 55.0027C621.479 52.6071 618.989 49.6127 617.214 46.0192C616.286 44.1412 615.6 42.045 615.157 39.7308H609.697V36.1374C609.697 31.945 608.094 28.3018 604.889 25.2074C601.683 22.1131 597.171 20.5659 591.352 20.5659C586.421 20.5659 582.525 21.589 579.665 23.6353C576.805 25.6816 575.375 28.4514 575.375 31.9451C575.375 33.7418 575.72 35.3638 576.41 36.8111C577.1 38.2585 578.309 39.5561 580.035 40.704C581.761 41.8519 584.029 42.875 586.84 43.7733C589.651 44.6717 593.226 45.5201 597.566 46.3187C608.415 48.315 616.699 51.6589 622.419 56.3503C628.14 61.0417 631 67.9789 631 77.1621V78.9588C631 79.0329 631 79.1069 630.999 79.1808ZM622.462 100.912C621.975 101.395 621.468 101.863 620.94 102.316C617.685 105.111 613.74 107.257 609.105 108.754C604.469 110.251 599.242 111 593.423 111C586.618 111 580.626 110.027 575.448 108.08C570.271 106.134 565.956 103.439 562.504 99.9952C559.052 96.5515 556.438 92.509 554.663 87.8674C552.888 83.2259 552 78.1603 552 72.6703V68.1786H571.528V71.772C571.528 78.0605 573.328 83.0762 576.928 86.8194C580.528 90.5625 586.125 92.4341 593.719 92.4341C599.637 92.4341 604.026 91.1365 606.886 88.5412C609.746 85.946 611.176 82.8517 611.176 79.2582C611.176 77.5613 610.88 75.9393 610.288 74.3922C609.697 72.845 608.661 71.4476 607.182 70.1999C605.702 68.9521 603.68 67.8292 601.116 66.831C598.552 65.8329 595.297 64.9844 591.352 64.2857C586.125 63.3874 581.341 62.2145 577.002 60.7672C572.662 59.3198 568.89 57.3984 565.684 55.0027C562.479 52.6071 559.989 49.6127 558.214 46.0192C556.438 42.4258 555.551 38.0339 555.551 32.8434V31.9451C555.551 27.6529 556.414 23.6852 558.14 20.0419C559.865 16.3986 562.282 13.2294 565.389 10.5343C568.495 7.83927 572.243 5.74314 576.632 4.24588C581.021 2.74862 585.928 2 591.352 2C597.467 2 602.891 2.87339 607.625 4.62019C612.36 6.367 616.329 8.73762 619.535 11.7321C620.172 12.3273 620.778 12.9401 621.352 13.5707C622.278 12.4993 623.29 11.4872 624.389 10.5343C627.495 7.83927 631.243 5.74314 635.632 4.24588C640.021 2.74862 644.928 2 650.352 2C656.467 2 661.891 2.87339 666.625 4.62019C671.36 6.367 675.329 8.73762 678.535 11.7321C681.74 14.7267 684.156 18.1703 685.784 22.0632C687.411 25.9561 688.225 30.0485 688.225 34.3407V39.7308H668.697V36.1374C668.697 31.945 667.094 28.3018 663.889 25.2074C660.683 22.1131 656.171 20.5659 650.352 20.5659C645.421 20.5659 641.525 21.589 638.665 23.6353C635.805 25.6816 634.375 28.4514 634.375 31.9451C634.375 33.7418 634.72 35.3638 635.41 36.8111C636.1 38.2585 637.309 39.5561 639.035 40.704C640.761 41.8519 643.029 42.875 645.84 43.7733C648.651 44.6717 652.226 45.5201 656.566 46.3187C667.415 48.315 675.699 51.6589 681.419 56.3503C687.14 61.0417 690 67.9789 690 77.1621V78.9588C690 83.8498 689.137 88.2667 687.411 92.2095C685.685 96.1523 683.195 99.521 679.94 102.316C676.685 105.111 672.74 107.257 668.105 108.754C663.469 110.251 658.242 111 652.423 111C645.618 111 639.626 110.027 634.448 108.08C629.739 106.31 625.744 103.921 622.462 100.912Z" fill="black"/>
</g>
<path d="M89.4161 108H55.0705L50.2919 28.96V14.6971H46.7081V28.96L41.9295 108H7.58389L4 4H21.9195L24.3087 83.04V96.4114H27.8926V83.04L32.6711 4H64.3289L69.1074 83.04V96.4114H72.6913V83.04L75.0805 4H93L89.4161 108ZM104 4H173V22.72H148.231V89.28H173V108H104V89.28H128.769V22.72H104V4ZM264.344 108H244.869V76.8C244.869 74.4229 244.254 72.4914 243.025 71.0057C241.795 69.52 239.754 68.7771 236.902 68.7771H214.475V108H195V4H234.541C239.852 4 244.525 4.74285 248.557 6.22857C252.59 7.71429 255.959 9.76951 258.664 12.3943C261.369 15.0191 263.434 18.0647 264.861 21.5314C266.287 24.9981 267 28.7124 267 32.6743V36.24C267 40.4991 265.869 44.4857 263.607 48.2C261.344 51.9143 257.852 54.7619 253.131 56.7429V59.4171C256.574 59.8133 259.303 61.1505 261.32 63.4286C263.336 65.7067 264.344 68.579 264.344 72.0457V108ZM214 50H232.562C237.277 50 240.862 48.8995 243.317 46.6984C245.772 44.4973 247 41.3913 247 37.3804V35.6196C247 32.1956 245.772 29.2364 243.317 26.7418C240.862 24.2473 237.277 23 232.562 23H214V50ZM287 4H352.229V22.72H306.48V46.4914H350.458V65.2114H306.48V89.28H354V108H287V4ZM377 4H396.36V89.28H443V108H377V4ZM468 4H533.229V22.72H487.48V46.4914H531.458V65.2114H487.48V89.28H535V108H468V4ZM630.999 79.1808C632.103 82.1365 633.849 84.6576 635.928 86.8194C639.528 90.5625 645.125 92.4341 652.719 92.4341C658.637 92.4341 663.026 91.1365 665.886 88.5412C668.746 85.946 670.176 82.8517 670.176 79.2582C670.176 77.5613 669.88 75.9393 669.288 74.3922C668.697 72.845 667.661 71.4476 666.182 70.1999C664.702 68.9521 662.68 67.8292 660.116 66.831C657.552 65.8329 654.297 64.9844 650.352 64.2857C645.125 63.3874 640.341 62.2145 636.002 60.7672C631.662 59.3198 627.89 57.3984 624.684 55.0027C621.479 52.6071 618.989 49.6127 617.214 46.0192C616.286 44.1412 615.6 42.045 615.157 39.7308H609.697V36.1374C609.697 31.945 608.094 28.3018 604.889 25.2074C601.683 22.1131 597.171 20.5659 591.352 20.5659C586.421 20.5659 582.525 21.589 579.665 23.6353C576.805 25.6816 575.375 28.4514 575.375 31.9451C575.375 33.7418 575.72 35.3638 576.41 36.8111C577.1 38.2585 578.309 39.5561 580.035 40.704C581.761 41.8519 584.029 42.875 586.84 43.7733C589.651 44.6717 593.226 45.5201 597.566 46.3187C608.415 48.315 616.699 51.6589 622.419 56.3503C628.14 61.0417 631 67.9789 631 77.1621V78.9588C631 79.0329 631 79.1069 630.999 79.1808ZM622.462 100.912C621.975 101.395 621.468 101.863 620.94 102.316C617.685 105.111 613.74 107.257 609.105 108.754C604.469 110.251 599.242 111 593.423 111C586.618 111 580.626 110.027 575.448 108.08C570.271 106.134 565.956 103.439 562.504 99.9952C559.052 96.5515 556.438 92.509 554.663 87.8674C552.888 83.2259 552 78.1603 552 72.6703V68.1786H571.528V71.772C571.528 78.0605 573.328 83.0762 576.928 86.8194C580.528 90.5625 586.125 92.4341 593.719 92.4341C599.637 92.4341 604.026 91.1365 606.886 88.5412C609.746 85.946 611.176 82.8517 611.176 79.2582C611.176 77.5613 610.88 75.9393 610.288 74.3922C609.697 72.845 608.661 71.4476 607.182 70.1999C605.702 68.9521 603.68 67.8292 601.116 66.831C598.552 65.8329 595.297 64.9844 591.352 64.2857C586.125 63.3874 581.341 62.2145 577.002 60.7672C572.662 59.3198 568.89 57.3984 565.684 55.0027C562.479 52.6071 559.989 49.6127 558.214 46.0192C556.438 42.4258 555.551 38.0339 555.551 32.8434V31.9451C555.551 27.6529 556.414 23.6852 558.14 20.0419C559.865 16.3986 562.282 13.2294 565.389 10.5343C568.495 7.83927 572.243 5.74314 576.632 4.24588C581.021 2.74862 585.928 2 591.352 2C597.467 2 602.891 2.87339 607.625 4.62019C612.36 6.367 616.329 8.73762 619.535 11.7321C620.172 12.3273 620.778 12.9401 621.352 13.5707C622.278 12.4993 623.29 11.4872 624.389 10.5343C627.495 7.83927 631.243 5.74314 635.632 4.24588C640.021 2.74862 644.928 2 650.352 2C656.467 2 661.891 2.87339 666.625 4.62019C671.36 6.367 675.329 8.73762 678.535 11.7321C681.74 14.7267 684.156 18.1703 685.784 22.0632C687.411 25.9561 688.225 30.0485 688.225 34.3407V39.7308H668.697V36.1374C668.697 31.945 667.094 28.3018 663.889 25.2074C660.683 22.1131 656.171 20.5659 650.352 20.5659C645.421 20.5659 641.525 21.589 638.665 23.6353C635.805 25.6816 634.375 28.4514 634.375 31.9451C634.375 33.7418 634.72 35.3638 635.41 36.8111C636.1 38.2585 637.309 39.5561 639.035 40.704C640.761 41.8519 643.029 42.875 645.84 43.7733C648.651 44.6717 652.226 45.5201 656.566 46.3187C667.415 48.315 675.699 51.6589 681.419 56.3503C687.14 61.0417 690 67.9789 690 77.1621V78.9588C690 83.8498 689.137 88.2667 687.411 92.2095C685.685 96.1523 683.195 99.521 679.94 102.316C676.685 105.111 672.74 107.257 668.105 108.754C663.469 110.251 658.242 111 652.423 111C645.618 111 639.626 110.027 634.448 108.08C629.739 106.31 625.744 103.921 622.462 100.912Z" fill="black"/>
<defs>
<filter id="filter0_d" x="0" y="41" width="694" height="117" filterUnits="userSpaceOnUse" color-interpolation-filters="sRGB">
<feFlood flood-opacity="0" result="BackgroundImageFix"/>
<feColorMatrix in="SourceAlpha" type="matrix" values="0 0 0 0 0 0 0 0 0 0 0 0 0 0 0 0 0 0 127 0"/>
<feOffset dy="2"/>
<feGaussianBlur stdDeviation="2"/>
<feColorMatrix type="matrix" values="0 0 0 0 0 0 0 0 0 0 0 0 0 0 0 0 0 0 0.5 0"/>
<feBlend mode="normal" in2="BackgroundImageFix" result="effect1_dropShadow"/>
<feBlend mode="normal" in="SourceGraphic" in2="effect1_dropShadow" result="shape"/>
</filter>
<filter id="filter1_d" x="0" y="31" width="694" height="117" filterUnits="userSpaceOnUse" color-interpolation-filters="sRGB">
<feFlood flood-opacity="0" result="BackgroundImageFix"/>
<feColorMatrix in="SourceAlpha" type="matrix" values="0 0 0 0 0 0 0 0 0 0 0 0 0 0 0 0 0 0 127 0"/>
<feOffset dy="2"/>
<feGaussianBlur stdDeviation="2"/>
<feColorMatrix type="matrix" values="0 0 0 0 0 0 0 0 0 0 0 0 0 0 0 0 0 0 0.5 0"/>
<feBlend mode="normal" in2="BackgroundImageFix" result="effect1_dropShadow"/>
<feBlend mode="normal" in="SourceGraphic" in2="effect1_dropShadow" result="shape"/>
</filter>
<filter id="filter2_d" x="0" y="23" width="694" height="117" filterUnits="userSpaceOnUse" color-interpolation-filters="sRGB">
<feFlood flood-opacity="0" result="BackgroundImageFix"/>
<feColorMatrix in="SourceAlpha" type="matrix" values="0 0 0 0 0 0 0 0 0 0 0 0 0 0 0 0 0 0 127 0"/>
<feOffset dy="2"/>
<feGaussianBlur stdDeviation="2"/>
<feColorMatrix type="matrix" values="0 0 0 0 0 0 0 0 0 0 0 0 0 0 0 0 0 0 0.5 0"/>
<feBlend mode="normal" in2="BackgroundImageFix" result="effect1_dropShadow"/>
<feBlend mode="normal" in="SourceGraphic" in2="effect1_dropShadow" result="shape"/>
</filter>
<filter id="filter3_d" x="0" y="12" width="694" height="117" filterUnits="userSpaceOnUse" color-interpolation-filters="sRGB">
<feFlood flood-opacity="0" result="BackgroundImageFix"/>
<feColorMatrix in="SourceAlpha" type="matrix" values="0 0 0 0 0 0 0 0 0 0 0 0 0 0 0 0 0 0 127 0"/>
<feOffset dy="2"/>
<feGaussianBlur stdDeviation="2"/>
<feColorMatrix type="matrix" values="0 0 0 0 0 0 0 0 0 0 0 0 0 0 0 0 0 0 0.5 0"/>
<feBlend mode="normal" in2="BackgroundImageFix" result="effect1_dropShadow"/>
<feBlend mode="normal" in="SourceGraphic" in2="effect1_dropShadow" result="shape"/>
</filter>
<filter id="filter4_d" x="0" y="0" width="694" height="117" filterUnits="userSpaceOnUse" color-interpolation-filters="sRGB">
<feFlood flood-opacity="0" result="BackgroundImageFix"/>
<feColorMatrix in="SourceAlpha" type="matrix" values="0 0 0 0 0 0 0 0 0 0 0 0 0 0 0 0 0 0 127 0"/>
<feOffset dy="2"/>
<feGaussianBlur stdDeviation="2"/>
<feColorMatrix type="matrix" values="0 0 0 0 0 0 0 0 0 0 0 0 0 0 0 0 0 0 0.5 0"/>
<feBlend mode="normal" in2="BackgroundImageFix" result="effect1_dropShadow"/>
<feBlend mode="normal" in="SourceGraphic" in2="effect1_dropShadow" result="shape"/>
</filter>
</defs>
</svg>
